<svg xmlns="http://www.w3.org/2000/svg" width="640" height="384" viewBox="0 0 320 192" shape-rendering="crispEdges" role="img" aria-label="Gallerie Ferrox"><title>Gallerie Ferrox - mappa illustrativa, non geografia di gioco</title><defs><pattern id="g" width="16" height="16" patternUnits="userSpaceOnUse"><rect x="0" y="0" width="16" height="16" fill="#2d373c"/><rect x="1" y="1" width="14" height="14" fill="#4a5252"/><rect x="8" y="8" width="3" height="3" fill="#2d373c"/></pattern></defs><rect x="0" y="0" width="320" height="192" fill="url(#g)"/><rect x="8" y="5" width="24" height="14" fill="#5f6666"/><rect x="5" y="11" width="31" height="17" fill="#8d9490"/><rect x="13" y="6" width="9" height="5" fill="#b9bcb0"/><rect x="65" y="84" width="24" height="14" fill="#5f6666"/><rect x="62" y="90" width="31" height="17" fill="#8d9490"/><rect x="70" y="85" width="9" height="5" fill="#b9bcb0"/><rect x="122" y="9" width="24" height="14" fill="#5f6666"/><rect x="119" y="15" width="31" height="17" fill="#8d9490"/><rect x="127" y="10" width="9" height="5" fill="#b9bcb0"/><rect x="179" y="88" width="24" height="14" fill="#5f6666"/><rect x="176" y="94" width="31" height="17" fill="#8d9490"/><rect x="184" y="89" width="9" height="5" fill="#b9bcb0"/><rect x="236" y="13" width="24" height="14" fill="#5f6666"/><rect x="233" y="19" width="31" height="17" fill="#8d9490"/><rect x="241" y="14" width="9" height="5" fill="#b9bcb0"/><rect x="8" y="92" width="24" height="14" fill="#5f6666"/><rect x="5" y="98" width="31" height="17" fill="#8d9490"/><rect x="13" y="93" width="9" height="5" fill="#b9bcb0"/><rect x="65" y="17" width="24" height="14" fill="#5f6666"/><rect x="62" y="23" width="31" height="17" fill="#8d9490"/><rect x="70" y="18" width="9" height="5" fill="#b9bcb0"/><rect x="122" y="96" width="24" height="14" fill="#5f6666"/><rect x="119" y="102" width="31" height="17" fill="#8d9490"/><rect x="127" y="97" width="9" height="5" fill="#b9bcb0"/><rect x="179" y="21" width="24" height="14" fill="#5f6666"/><rect x="176" y="27" width="31" height="17" fill="#8d9490"/><rect x="184" y="22" width="9" height="5" fill="#b9bcb0"/><rect x="236" y="100" width="24" height="14" fill="#5f6666"/><rect x="233" y="106" width="31" height="17" fill="#8d9490"/><rect x="241" y="101" width="9" height="5" fill="#b9bcb0"/><rect x="8" y="25" width="24" height="14" fill="#5f6666"/><rect x="5" y="31" width="31" height="17" fill="#8d9490"/><rect x="13" y="26" width="9" height="5" fill="#b9bcb0"/><rect x="24" y="17" width="272" height="158" fill="#222e33"/><rect x="41" y="28" width="238" height="136" fill="#4d5454"/><path d="M80 181L130 127L128 55L180 13" stroke="#b7a07e" stroke-width="27" fill="none" stroke-linecap="square" stroke-linejoin="miter"/><path d="M80 181L130 127L128 55L180 13" stroke="#56575a" stroke-width="10" fill="none" stroke-linecap="square" stroke-linejoin="miter"/><rect x="170" y="22" width="57" height="40" fill="#262d32"/><rect x="176" y="28" width="46" height="27" fill="#a49b70"/><rect x="0" y="0" width="320" height="5" fill="#233037"/><rect x="0" y="187" width="320" height="5" fill="#233037"/><rect x="0" y="0" width="5" height="192" fill="#233037"/><rect x="315" y="0" width="5" height="192" fill="#233037"/></svg>