<svg xmlns="http://www.w3.org/2000/svg" width="640" height="384" viewBox="0 0 320 192" shape-rendering="crispEdges" role="img" aria-label="Porto e magazzini di Mareasale"><title>Porto e magazzini di Mareasale - illustrazione ambientale non geografica</title><defs><pattern id="sea" width="28" height="28" patternUnits="userSpaceOnUse"><rect x="0" y="0" width="28" height="28" fill="#387991"/><rect x="7" y="9" width="12" height="3" fill="#67b1ba"/><rect x="18" y="22" width="8" height="3" fill="#8bcdce"/></pattern><pattern id="land" width="18" height="18" patternUnits="userSpaceOnUse"><rect x="0" y="0" width="18" height="18" fill="#b4ac85"/><rect x="3" y="5" width="6" height="4" fill="#c5bf9a"/><rect x="12" y="12" width="3" height="3" fill="#8b9775"/></pattern></defs><rect x="0" y="0" width="320" height="192" fill="url(#sea)"/><rect x="0" y="0" width="125" height="192" fill="url(#land)"/><rect x="107" y="13" width="32" height="156" fill="#8a775d"/><rect x="129" y="28" width="158" height="26" fill="#ad9c76"/><rect x="132" y="100" width="148" height="26" fill="#a69777"/><rect x="11" y="23" width="76" height="65" fill="#eee0c3"/><rect x="6" y="19" width="86" height="10" fill="#756e70"/><rect x="15" y="14" width="68" height="5" fill="#9a695d"/><rect x="21" y="36" width="13" height="17" fill="#77a3b0"/><rect x="64" y="36" width="13" height="17" fill="#77a3b0"/><rect x="142" y="34" width="15" height="15" fill="#806d50"/><rect x="142" y="106" width="15" height="15" fill="#806d50"/><rect x="170" y="34" width="15" height="15" fill="#806d50"/><rect x="170" y="106" width="15" height="15" fill="#806d50"/><rect x="198" y="34" width="15" height="15" fill="#806d50"/><rect x="198" y="106" width="15" height="15" fill="#806d50"/><rect x="226" y="34" width="15" height="15" fill="#806d50"/><rect x="226" y="106" width="15" height="15" fill="#806d50"/><rect x="254" y="34" width="15" height="15" fill="#806d50"/><rect x="254" y="106" width="15" height="15" fill="#806d50"/><rect x="0" y="0" width="320" height="5" fill="#254858"/><rect x="0" y="187" width="320" height="5" fill="#254858"/><rect x="0" y="0" width="5" height="192" fill="#254858"/><rect x="315" y="0" width="5" height="192" fill="#254858"/></svg>