<svg xmlns="http://www.w3.org/2000/svg" width="640" height="384" viewBox="0 0 320 192" role="img" aria-label="Salita all'Altopiano" shape-rendering="crispEdges"><title>Salita all'Altopiano</title><defs><pattern id="g" width="16" height="16" patternUnits="userSpaceOnUse"><rect x="0" y="0" width="16" height="16" fill="#829a98"/><rect x="2" y="2" width="13" height="13" fill="#cbd5cb"/></pattern></defs><rect x="0" y="0" width="320" height="192" fill="url(#g)"/><path d="M11 127l49 -78l44 78" stroke="#ced7d1" stroke-width="30" fill="none" stroke-linecap="square"/><path d="M47 60l15 -17l13 17" stroke="#f3f2e9" stroke-width="20" fill="none" stroke-linecap="square"/><path d="M176 114l49 -78l44 78" stroke="#ced7d1" stroke-width="30" fill="none" stroke-linecap="square"/><path d="M212 47l15 -17l13 17" stroke="#f3f2e9" stroke-width="20" fill="none" stroke-linecap="square"/><path d="M-9 185L97 149L160 92L239 116L329 37" stroke="#e4e3d9" stroke-width="24" fill="none" stroke-linecap="square"/><path d="M-9 185L97 149L160 92L239 116L329 37" stroke="#9eada5" stroke-width="5" fill="none" stroke-linecap="square"/><rect x="0" y="0" width="320" height="5" fill="#293b46"/><rect x="0" y="187" width="320" height="5" fill="#293b46"/><rect x="0" y="0" width="5" height="192" fill="#293b46"/><rect x="315" y="0" width="5" height="192" fill="#293b46"/></svg>