<svg xmlns="http://www.w3.org/2000/svg" width="640" height="384" viewBox="0 0 320 192" role="img" aria-label="Solaria" shape-rendering="crispEdges"><title>Solaria - scenario illustrativo, non geografia di gioco</title><defs><pattern id="g" width="16" height="16" patternUnits="userSpaceOnUse"><rect x="0" y="0" width="16" height="16" fill="#8f9c8a"/><rect x="3" y="3" width="12" height="11" fill="#c8c9a9"/></pattern></defs><rect x="0" y="0" width="320" height="192" fill="url(#g)"/><path d="M0 149H320" stroke="#d5bb8b" stroke-width="32" fill="none" stroke-linecap="square"/><rect x="14" y="45" width="65" height="95" fill="#c6d2b8"/><rect x="11" y="41" width="71" height="10" fill="#b37d55"/><rect x="23" y="60" width="9" height="12" fill="#668c99"/><rect x="39" y="60" width="9" height="12" fill="#668c99"/><rect x="55" y="60" width="9" height="12" fill="#668c99"/><rect x="94" y="13" width="65" height="127" fill="#bac6b7"/><rect x="91" y="9" width="71" height="10" fill="#b37d55"/><rect x="103" y="28" width="9" height="12" fill="#668c99"/><rect x="119" y="28" width="9" height="12" fill="#668c99"/><rect x="135" y="28" width="9" height="12" fill="#668c99"/><rect x="174" y="45" width="65" height="95" fill="#c6d2b8"/><rect x="171" y="41" width="71" height="10" fill="#b37d55"/><rect x="183" y="60" width="9" height="12" fill="#668c99"/><rect x="199" y="60" width="9" height="12" fill="#668c99"/><rect x="215" y="60" width="9" height="12" fill="#668c99"/><rect x="254" y="13" width="65" height="127" fill="#bac6b7"/><rect x="251" y="9" width="71" height="10" fill="#b37d55"/><rect x="263" y="28" width="9" height="12" fill="#668c99"/><rect x="279" y="28" width="9" height="12" fill="#668c99"/><rect x="295" y="28" width="9" height="12" fill="#668c99"/><rect x="116" y="135" width="80" height="16" fill="#899a87"/><rect x="0" y="0" width="320" height="5" fill="#253947"/><rect x="0" y="187" width="320" height="5" fill="#253947"/><rect x="0" y="0" width="5" height="192" fill="#253947"/><rect x="315" y="0" width="5" height="192" fill="#253947"/></svg>