<svg xmlns="http://www.w3.org/2000/svg" width="640" height="384" viewBox="0 0 320 192" role="img" aria-label="Meridiana" shape-rendering="crispEdges"><title>Meridiana - scenario illustrativo, non geografia di gioco</title><defs><pattern id="g" width="16" height="16" patternUnits="userSpaceOnUse"><rect x="0" y="0" width="16" height="16" fill="#546c84"/><rect x="3" y="3" width="12" height="11" fill="#788c9a"/></pattern></defs><rect x="0" y="0" width="320" height="192" fill="url(#g)"/><rect x="0" y="150" width="320" height="42" fill="#5e737c"/><rect x="6" y="107" width="24" height="43" fill="#acc1b8"/><rect x="11" y="111" width="7" height="8" fill="#d9cda7"/><rect x="19" y="129" width="7" height="8" fill="#d9cda7"/><rect x="34" y="90" width="24" height="60" fill="#7c929a"/><rect x="39" y="94" width="7" height="8" fill="#d9cda7"/><rect x="47" y="112" width="7" height="8" fill="#d9cda7"/><rect x="62" y="73" width="24" height="77" fill="#7c929a"/><rect x="67" y="77" width="7" height="8" fill="#d9cda7"/><rect x="75" y="95" width="7" height="8" fill="#d9cda7"/><rect x="90" y="56" width="24" height="94" fill="#acc1b8"/><rect x="95" y="60" width="7" height="8" fill="#d9cda7"/><rect x="103" y="78" width="7" height="8" fill="#d9cda7"/><rect x="118" y="39" width="24" height="111" fill="#7c929a"/><rect x="123" y="43" width="7" height="8" fill="#d9cda7"/><rect x="131" y="61" width="7" height="8" fill="#d9cda7"/><rect x="146" y="22" width="24" height="128" fill="#7c929a"/><rect x="151" y="26" width="7" height="8" fill="#d9cda7"/><rect x="159" y="44" width="7" height="8" fill="#d9cda7"/><rect x="174" y="98" width="24" height="52" fill="#acc1b8"/><rect x="179" y="102" width="7" height="8" fill="#d9cda7"/><rect x="187" y="120" width="7" height="8" fill="#d9cda7"/><rect x="202" y="81" width="24" height="69" fill="#7c929a"/><rect x="207" y="85" width="7" height="8" fill="#d9cda7"/><rect x="215" y="103" width="7" height="8" fill="#d9cda7"/><rect x="230" y="64" width="24" height="86" fill="#7c929a"/><rect x="235" y="68" width="7" height="8" fill="#d9cda7"/><rect x="243" y="86" width="7" height="8" fill="#d9cda7"/><rect x="258" y="47" width="24" height="103" fill="#acc1b8"/><rect x="263" y="51" width="7" height="8" fill="#d9cda7"/><rect x="271" y="69" width="7" height="8" fill="#d9cda7"/><rect x="286" y="30" width="24" height="120" fill="#7c929a"/><rect x="291" y="34" width="7" height="8" fill="#d9cda7"/><rect x="299" y="52" width="7" height="8" fill="#d9cda7"/><rect x="314" y="106" width="24" height="44" fill="#7c929a"/><rect x="319" y="110" width="7" height="8" fill="#d9cda7"/><rect x="327" y="128" width="7" height="8" fill="#d9cda7"/><path d="M0 170H320" stroke="#d1c7ab" stroke-width="4" fill="none" stroke-linecap="square"/><rect x="0" y="0" width="320" height="5" fill="#253947"/><rect x="0" y="187" width="320" height="5" fill="#253947"/><rect x="0" y="0" width="5" height="192" fill="#253947"/><rect x="315" y="0" width="5" height="192" fill="#253947"/></svg>